Joint Body 2011 VoDRip XviD HS


Source--- you dont have to know...

 
http://www.imdb.com/title/tt1628043/


Format                                   : AVI
Format/Info                              : Audio Video Interleave
File size                                : 774 MiB
Duration                                 : 1h 25mn
Overall bit rate                         : 1 259 Kbps
Writing application                      : Lavf52.103.0

Video
ID                                       : 1
Format                                   : MPEG-4 Visual
Format profile                           : Simple@L1
Format settings, BVOP                    : No
Format settings, QPel                    : No
Format settings, GMC                     : No warppoints
Format settings, Matrix                  : Default (H.263)
Codec ID                                 : XVID
Duration                                 : 1h 25mn
Bit rate                                 : 1 054 Kbps
Width                                    : 640 pixels
Height                                   : 270 pixels
Display aspect ratio                     : 2.40:1
Frame rate                               : 23.976 fps
Color space                              : YUV
Chroma subsampling                       : 4:2:0
Bit depth                                : 8 bits
Scan type                                : Progressive
Compression mode                         : Lossy
Bits/(Pixel*Frame)                       : 0.254
Stream size                              : 649 MiB (84%)
Writing library                          : Lavc52.116.0

Audio
ID                                       : 0
Format                                   : MPEG Audio
Format version                           : Version 1
Format profile                           : Layer 3
Mode                                     : Joint stereo
Mode extension                           : MS Stereo
Codec ID                                 : 55
Codec ID/Hint                            : MP3
Duration                                 : 1h 25mn
Bit rate mode                            : Constant
Bit rate                                 : 192 Kbps
Channel(s)                               : 2 channels
Sampling rate                            : 44.1 KHz
Compression mode                         : Lossy
Stream size                              : 118 MiB (15%)
Alignment                                : Aligned on interleaves
Interleave, duration                     : 42 ms (1.00 video frame)
Writing library                          : LAME3.98.4


Poster:

 
http://i.imgur.com/qMo5s.jpg


Screenshots:

 
http://i.imgur.com/UwQX2.png

 
http://i.imgur.com/lGcac.png

 
http://i.imgur.com/tqrfP.png


ENJOY!